# xmcd
#
# Track frame offsets:
# 150
# 12527
# 35585
# 49355
# 68617
# 83542
# 102392
# 119617
# 143462
# 163967
#
# Disc length: 2681 seconds
#
#
# Revision: 3
# Processed by: cddbd v1.5.1PL2 Copyright (c) Steve Scherf et al.
# Submitted via: FreeRIP 2.943 
#
DISCID=860a770a
DTITLE=Roy Buchanan - Hot Wires
DYEAR=1990
DGENRE=Blues
TTITLE0=High Wire
TTITLE1=That Did It
TTITLE2=Goose Grease
TTITLE3=Sunset Over Broadway
TTITLE4=Ain't No Business
TTITLE5=Flash Chordin'
TTITLE6=25 Miles
TTITLE7=These Arms Of Mine
TTITLE8=Country Boogie
TTITLE9=The Blues Lover
EXTD=
EXTT0=
EXTT1=
EXTT2=
EXTT3=
EXTT4=
EXTT5=
EXTT6=
EXTT7=
EXTT8=
EXTT9=
PLAYORDER=
